<?xml version="1.0" standalone="no"?>
<!DOCTYPE svg PUBLIC "-//W3C//DTD SVG 20010904//EN"
 "http://www.w3.org/TR/2001/REC-SVG-20010904/DTD/svg10.dtd">
<svg version="1.0" xmlns="http://www.w3.org/2000/svg"
 width="260.000000pt" height="260.000000pt" viewBox="0 0 260.000000 260.000000"
 preserveAspectRatio="xMidYMid meet">
<metadata>
Created by potrace 1.11, written by Peter Selinger 2001-2013
</metadata>
<g transform="translate(0.000000,260.000000) scale(0.100000,-0.100000)"
fill="#000000" stroke="none">
<path d="M50 2576 c0 -22 3 -27 11 -19 8 8 8 16 0 30 -9 16 -10 14 -11 -11z"/>
<path d="M1508 2563 l-3 -38 -104 -9 c-79 -7 -105 -6 -111 3 -5 10 -9 9 -13
-3 -4 -10 -18 -16 -37 -16 -16 0 -30 -4 -30 -10 0 -5 13 -10 30 -10 29 0 29 0
32 -65 4 -86 22 -89 26 -4 l3 67 37 6 c20 3 68 6 105 6 l68 0 -3 -85 c-4 -114
17 -116 26 -3 7 82 14 98 49 98 17 0 19 -8 15 -105 -1 -58 1 -105 5 -105 7 0
83 -36 150 -72 27 -15 27 -15 -40 -21 -292 -26 -404 -30 -553 -18 -85 6 -198
11 -251 11 -109 0 -109 0 -217 -104 -120 -116 -229 -287 -287 -451 -19 -54
-36 -100 -39 -102 -3 -3 -38 2 -78 12 -106 25 -109 26 -103 36 3 5 -1 6 -10 3
-8 -4 -21 -2 -28 4 -7 6 -31 13 -53 15 -23 3 -52 10 -64 17 -24 13 -35 8 -27
-13 3 -8 36 -19 81 -27 42 -7 79 -17 82 -21 3 -5 17 -9 32 -9 15 0 61 -9 102
-20 41 -11 75 -20 76 -20 0 0 7 19 14 43 17 59 46 113 91 174 53 71 147 118
218 110 28 -3 64 -13 82 -22 17 -9 29 -13 26 -8 -3 5 7 25 24 44 16 19 29 37
29 40 0 12 93 99 135 128 209 141 422 123 595 -50 97 -96 173 -234 148 -268
-6 -9 10 7 35 36 26 28 70 63 99 77 88 44 153 32 231 -42 45 -44 80 -144 99
-281 27 -209 -55 -380 -236 -490 -88 -53 -129 -63 -231 -59 -135 6 -189 39
-206 126 -7 37 -7 37 -8 6 -1 -31 -3 -32 -73 -48 -76 -16 -113 -18 -236 -17
-56 1 -71 4 -66 14 5 6 -8 -4 -27 -24 -45 -48 -116 -69 -229 -69 -91 0 -212
25 -272 56 -50 26 -144 102 -175 142 -14 20 -37 61 -50 91 -14 31 -21 43 -18
26 3 -16 17 -54 31 -84 19 -43 22 -56 12 -64 -10 -6 -9 -8 3 -4 10 3 29 -8 50
-30 19 -20 27 -34 19 -31 -68 25 -99 42 -93 51 4 6 -2 8 -17 4 -15 -4 -77 18
-197 69 -96 41 -176 74 -179 74 -12 0 -2 -21 13 -27 103 -36 534 -210 553
-223 14 -10 53 -32 87 -49 227 -114 441 -153 840 -152 l203 1 16 -26 c15 -22
15 -33 4 -102 -24 -149 -67 -201 -199 -243 -89 -29 -289 -37 -381 -16 -72 17
-93 15 -33 -3 58 -18 271 -24 364 -10 122 17 182 43 227 96 34 42 40 45 72 39
l35 -6 -33 21 c-32 20 -32 21 -17 50 8 16 15 36 15 45 0 22 59 55 98 55 36 0
134 36 199 73 104 59 243 164 240 183 -1 6 12 24 28 41 l30 30 75 -18 c41 -10
82 -19 91 -19 22 0 59 81 66 145 7 64 -25 155 -67 192 -26 23 -164 71 -229 80
l-38 5 -12 82 c-10 72 -29 136 -84 282 -20 51 -77 149 -122 208 -18 24 -29 46
-24 48 11 4 262 -11 267 -16 1 -2 -1 -52 -7 -112 -5 -60 -6 -112 -2 -117 4 -4
70 -14 147 -22 164 -17 174 -18 174 -6 0 5 -38 12 -85 16 l-86 7 6 62 c3 33 8
85 11 114 l6 53 71 -2 c60 -2 73 0 75 14 3 15 -6 17 -65 17 -37 0 -73 4 -80 8
-8 5 -9 31 -2 97 15 142 10 134 80 137 l61 3 4 168 4 167 -360 0 -360 0 0 -30
c0 -30 0 -30 -57 -30 -32 0 -88 -3 -125 -7 l-68 -6 0 37 c0 24 -5 36 -14 36
-8 0 -12 -8 -9 -22 5 -30 -6 -45 -40 -53 -26 -7 -27 -6 -27 34 0 55 -27 58
-32 4z m472 12 c0 -12 -21 -25 -40 -25 -5 0 -8 8 -7 19 1 21 47 27 47 6z m335
-147 c-4 -57 -8 -109 -10 -115 -3 -10 -42 -13 -150 -13 l-145 0 1 53 c1 28 4
77 7 107 l7 55 85 6 c47 3 113 6 148 7 l63 2 -6 -102z m-440 -20 c-4 -59 -12
-106 -18 -110 -7 -4 -63 -8 -126 -8 l-114 0 7 77 c3 42 6 89 6 104 0 26 4 28
43 32 23 2 80 4 126 5 l84 2 -8 -102z m105 20 c0 -116 -5 -128 -46 -128 -39 0
-39 0 -28 133 l7 77 33 0 34 0 0 -82z m420 -7 c0 -5 8 -12 18 -15 14 -5 16
-15 14 -54 l-4 -49 -40 -1 -41 -2 7 50 c4 28 9 57 12 65 7 16 34 21 34 6z
m-530 -206 c0 -30 -2 -55 -5 -55 -2 0 -32 18 -66 40 -33 21 -71 42 -82 46 -22
7 -22 7 -2 15 11 4 50 8 88 8 l67 1 0 -55z m101 -45 c-2 -52 -5 -97 -7 -99 -2
-3 -18 8 -34 24 -27 26 -30 34 -30 95 0 37 3 70 7 74 4 4 21 6 38 4 l30 -3 -4
-95z m298 94 c31 -6 31 -7 31 -69 0 -34 -3 -83 -6 -109 l-7 -46 -91 0 c-50 0
-115 3 -143 6 -53 7 -53 7 -53 43 0 20 3 66 6 103 l7 67 81 4 c45 1 95 4 112
5 17 1 46 -1 63 -4z m155 -106 c-3 -57 -8 -109 -10 -116 -2 -9 -18 -12 -46
-10 -39 3 -43 5 -41 28 1 14 5 64 8 113 l7 87 44 0 44 0 -6 -102z m-24 -240
c0 -40 -3 -90 -7 -111 -6 -37 -7 -38 -42 -35 l-36 3 2 85 c4 123 7 130 48 130
l35 0 0 -72z m55 -789 c-4 -5 -13 -9 -22 -9 -13 0 -13 3 -3 15 13 15 35 11 25
-6z"/>
<path d="M400 2540 c0 -5 5 -10 10 -10 6 0 10 5 10 10 0 6 -4 10 -10 10 -5 0
-10 -4 -10 -10z"/>
<path d="M208 1743 c12 -2 30 -2 40 0 9 3 -1 5 -23 4 -22 0 -30 -2 -17 -4z"/>
<path d="M388 1708 c9 -9 15 -9 24 0 9 9 7 12 -12 12 -19 0 -21 -3 -12 -12z"/>
<path d="M362 1310 c0 -14 2 -19 5 -12 2 6 2 18 0 25 -3 6 -5 1 -5 -13z"/>
<path d="M0 1275 c0 -24 5 -35 15 -35 8 0 15 4 15 10 0 5 7 7 15 4 8 -4 15 -1
15 5 0 6 8 11 18 12 12 0 10 3 -8 10 -17 7 -26 7 -28 0 -2 -6 -8 -11 -14 -11
-6 0 -8 6 -5 14 3 8 -1 17 -9 20 -10 4 -14 -3 -14 -29z"/>
<path d="M841 814 c0 -11 3 -14 6 -6 3 7 2 16 -1 19 -3 4 -6 -2 -5 -13z"/>
<path d="M1465 710 c-38 -42 -27 -180 15 -180 28 0 42 25 46 87 7 87 -24 134
-61 93z m25 -10 c0 -5 -4 -10 -10 -10 -5 0 -10 5 -10 10 0 6 5 10 10 10 6 0
10 -4 10 -10z"/>
<path d="M1128 698 c-14 -28 -14 -119 2 -147 14 -26 46 -27 60 -2 5 11 10 44
10 73 0 82 -43 128 -72 76z m42 3 c0 -5 -7 -11 -15 -15 -15 -5 -20 5 -8 17 9
10 23 9 23 -2z"/>
<path d="M850 590 c-8 -5 -10 -10 -5 -10 6 0 17 5 25 10 8 5 11 10 5 10 -5 0
-17 -5 -25 -10z"/>
</g>
</svg>
